<?xml version="1.0" encoding="UTF-8"?>
<svg id="Layer_1" data-name="Layer 1" xmlns="http://www.w3.org/2000/svg" xmlns:xlink="http://www.w3.org/1999/xlink" viewBox="0 0 1080 1080">
  <defs>
    <style>
      .cls-1 {
        fill: url(#linear-gradient-2);
      }

      .cls-2 {
        fill: #262f6a;
      }

      .cls-3 {
        fill-rule: evenodd;
      }

      .cls-3, .cls-4 {
        fill: #42b980;
      }

      .cls-5 {
        fill: url(#linear-gradient);
      }
    </style>
    <linearGradient id="linear-gradient" x1="636.46" y1="539.57" x2="636.46" y2="539.57" gradientUnits="userSpaceOnUse">
      <stop offset="0" stop-color="#606161"/>
      <stop offset="1" stop-color="#42a1da"/>
    </linearGradient>
    <linearGradient id="linear-gradient-2" x1="636.45" y1="539.56" x2="636.47" y2="539.57" xlink:href="#linear-gradient"/>
  </defs>
  <g>
    <path class="cls-3" d="M496.75,674.6h.03c-.21,.12-.45,.18-.68,.18s-.48-.06-.68-.18c-.24-.15-.41-.3-.5-.51-.12-.18-.18-.41-.18-.65l-.12-72.17c14.64-6.06,27.11-10.4,36.56-9.56,8.76,.77,15.71,7.22,20.88,23.52,2.56,8.11,5.44,15.59,8.59,22.48l-63.88,36.89Z"/>
    <path class="cls-3" d="M702.94,554.94c0,.3-.03,.54-.09,.68h-.03c-.12,.18-.3,.36-.5,.48l-56.52,32.64c-2.67-13.28-8.23-25.12-20.41-33.8,12.18-8.7,17.73-20.52,20.41-33.79l56.52,32.61,.53,.48,.09,.71Z"/>
    <path class="cls-3" d="M560.63,472.17c-3.15,6.89-6.03,14.37-8.59,22.48-5.16,16.31-12.12,22.72-20.88,23.49-9.44,.83-21.92-3.48-36.56-9.56l.12-72.14,.18-.68,.5-.48,.68-.18,.65,.18,63.88,36.89Z"/>
    <polygon class="cls-5" points="636.46 539.57 636.46 539.57 636.46 539.57 636.46 539.57"/>
    <polygon class="cls-1" points="636.46 539.57 636.46 539.57 636.46 539.57 636.46 539.57"/>
    <path class="cls-2" d="M718.33,545.26c-1.66-2.82-4.07-5.26-7.1-7.01l-63.25-36.5c.24-4.66,.36-9.41,.44-14.14,.95-41.66,6.45-55,30.09-68.78l-16.54-3c-26.73-4.84-49.42-.45-68.1,13.18-9.41,6.83-17.67,15.95-24.77,27.35l-63.38-36.59c-3.06-1.75-6.36-2.64-9.62-2.64s-6.53,.89-9.59,2.64c-2.87,1.64-5.17,3.87-6.79,6.49-17.15,.09-33.79,3.51-49.46,10.15-15.31,6.49-29.05,15.77-40.85,27.58-11.8,11.81-21.07,25.57-27.54,40.88-6.7,15.86-10.1,32.7-10.1,50.05s3.4,34.2,10.1,50.05c6.47,15.31,15.74,29.07,27.54,40.88,11.8,11.81,25.54,21.09,40.85,27.58,15.68,6.65,32.32,10.06,49.48,10.15,1.62,2.61,3.91,4.82,6.77,6.46,3.06,1.78,6.33,2.64,9.59,2.64s6.56-.86,9.62-2.64h.03l63.35-36.59c7.1,11.41,15.35,20.52,24.77,27.38,18.68,13.6,41.37,18,68.1,13.18l16.54-3c-23.64-13.78-29.13-27.14-30.09-68.78-.09-4.75-.21-9.47-.44-14.17l63.25-36.5c3.03-1.75,5.44-4.15,7.1-7.01v-.03c1.66-2.91,2.55-6.18,2.55-9.63s-.89-6.71-2.55-9.68Zm-223.6-108.82l.18-.68,.5-.48,.68-.18,.65,.18,63.88,36.89c-3.15,6.89-6.03,14.37-8.59,22.48-5.16,16.31-12.12,22.72-20.88,23.49-9.44,.83-21.92-3.48-36.56-9.56l.12-72.14Zm-29,188.8c.54,.11,1.09,.22,1.64,.32,2.19,.4,4.41,.7,6.64,.9,.91,.08,1.83,.14,2.75,.19l.05,24.83c-51.58-1.91-92.98-44.51-92.98-96.53s41.39-94.62,92.98-96.54l-.05,24.83c-17.82,.89-34.45,8.27-47.15,20.98-13.53,13.56-20.98,31.57-20.98,50.72s7.45,37.16,20.98,50.72c10.03,10.05,22.53,16.77,36.12,19.58Zm-108.16-70.3c0-66.68,53.45-121.17,119.75-122.82-.31,1.39-.47,2.84-.47,4.33l-.03,16.15c-26.02,.9-50.36,11.46-68.85,29.98-19.31,19.34-29.95,45.04-29.95,72.37s10.63,53.03,29.95,72.37c18.49,18.52,42.82,29.08,68.85,29.98l.03,16.16c0,1.49,.16,2.94,.48,4.33-66.3-1.66-119.75-56.15-119.75-122.83Zm139.18,119.66h.03c-.21,.12-.45,.18-.68,.18s-.48-.06-.68-.18c-.24-.15-.41-.3-.5-.51-.12-.18-.18-.41-.18-.65l-.12-72.17c14.64-6.06,27.11-10.4,36.56-9.56,8.76,.77,15.71,7.22,20.88,23.52,2.56,8.11,5.44,15.59,8.59,22.48l-63.88,36.89Zm107.62-8.2c-15.03-10.93-26.76-29.79-35.22-56.57-7.78-24.65-20.07-34.54-36.44-35.99-14.53-1.28-31.12,5.05-50.52,13.27l-5.49,2.32v5.91l.05,25.51c-34.67-1.92-62.31-30.77-62.31-65.89s27.64-63.98,62.31-65.9l-.05,25.47v5.91l5.49,2.32c19.4,8.26,36,14.55,50.52,13.28,16.36-1.43,28.66-11.31,36.44-35.99,8.46-26.76,20.19-45.65,35.22-56.57,10.52-7.66,22.9-11.55,37.15-11.61-10.07,15.95-10.54,35.75-10.99,55.42-.33,15.15-.68,30.18-6.71,41.73-6.65,12.77-17.85,20.58-33.38,25.96,15.53,5.38,26.73,13.16,33.38,25.93,6.03,11.55,6.39,26.58,6.71,41.76,.45,19.63,.92,39.47,10.99,55.42-14.25-.09-26.64-3.95-37.15-11.64Zm98.48-110.78h-.03c-.12,.18-.3,.36-.5,.48l-56.52,32.64c-2.67-13.28-8.23-25.12-20.41-33.8,12.18-8.7,17.73-20.52,20.41-33.79l56.52,32.61,.53,.48,.09,.71c0,.3-.03,.54-.09,.68Z"/>
    <path class="cls-4" d="M398.67,469.89c-22.81,23.09-35.32,53.54-35.32,86.13,0,28.94,10.17,56.8,28.7,78.87l-12.53,6.43c-19.35-24.16-29.94-54.17-29.94-85.3,0-18.95,3.81-37.28,11.32-54.51,6.35-14.56,15.07-27.73,25.96-39.24,1.56-1.65,3.16-3.26,4.81-4.84l9.53,9.95c-.86,.82-1.7,1.65-2.53,2.5Z"/>
    <path class="cls-4" d="M423.93,485.71c-.11,.08-.21,.18-.32,.27h0c-21.38,17.54-33.63,43.44-33.63,71.09,0,24.58,9.57,47.68,26.96,65.05l-3.38,1.73-9.77,5.01c-8.27-8.98-14.86-19.21-19.62-30.46-5.54-13.1-8.36-27-8.36-41.33,0-30.4,12.83-58.96,35.39-79.1,1.24-1.11,2.51-2.19,3.8-3.25l8.93,10.99Z"/>
    <path class="cls-4" d="M442.68,603.65l4.1,3.13-.65,.33-10.49,5.39-2.96,1.52c-17.48-14.4-27.47-35.55-27.47-58.25,0-13.57,3.63-26.87,10.52-38.48,5.34-9,12.51-16.81,20.98-22.88l13.21,8.53c-18.74,10.93-30.36,31.13-30.36,52.83,0,18.75,8.43,36.19,23.11,47.87h0Z"/>
    <path class="cls-4" d="M363.35,556.02c0,28.94,10.17,56.8,28.7,78.87l-12.53,6.43c-19.35-24.16-29.94-54.17-29.94-85.3,0-18.95,3.81-37.28,11.32-54.51,6.35-14.56,15.07-27.73,25.96-39.24l11.81,7.61c-22.81,23.09-35.32,53.54-35.32,86.13Z"/>
    <path class="cls-4" d="M389.98,557.07c0,24.58,9.57,47.68,26.96,65.05l-3.38,1.73-9.77,5.01c-8.27-8.98-14.86-19.21-19.62-30.46-5.54-13.1-8.36-27-8.36-41.33,0-30.4,12.83-58.96,35.39-79.1l9.24,5.96,3.17,2.05c-21.38,17.54-33.63,43.44-33.63,71.09Z"/>
    <path class="cls-4" d="M450.44,502.64c-.17,.1-.34,.2-.51,.31l-13.21-8.53c2.12-1.53,4.33-2.95,6.61-4.25l7.12,12.47Z"/>
  </g>
  <path class="cls-2" d="M699.48,678.64c-3.11-1.7-5.54-4.07-7.3-7.1-1.76-3.03-2.64-6.46-2.64-10.28s.88-7.24,2.64-10.28c1.76-3.03,4.19-5.4,7.3-7.1,3.11-1.7,6.61-2.55,10.5-2.55s7.39,.85,10.5,2.55c3.11,1.7,5.54,4.07,7.3,7.1,1.76,3.03,2.64,6.46,2.64,10.28s-.88,7.24-2.64,10.28c-1.76,3.03-4.19,5.4-7.3,7.1-3.11,1.7-6.61,2.56-10.5,2.56s-7.39-.85-10.5-2.56Zm19.4-2.08c2.6-1.48,4.63-3.55,6.09-6.2,1.46-2.66,2.19-5.69,2.19-9.1s-.73-6.44-2.19-9.1c-1.46-2.66-3.49-4.73-6.09-6.2-2.6-1.48-5.57-2.22-8.9-2.22s-6.3,.74-8.9,2.22c-2.6,1.48-4.63,3.55-6.09,6.2-1.46,2.66-2.19,5.69-2.19,9.1s.73,6.44,2.19,9.1c1.46,2.66,3.49,4.73,6.09,6.2,2.6,1.48,5.57,2.22,8.9,2.22s6.3-.74,8.9-2.22Zm-3.65-4.52c-.96-.75-2.03-2.13-3.23-4.16l-3.76-6.12h-1.8v11.01h-4.27v-19.71c0-1.24-.13-2.13-.39-2.7-.26-.56-.81-.84-1.63-.84h-.9v-.84h9.6c2.66,0,4.92,.49,6.79,1.46,1.87,.97,2.81,2.73,2.81,5.28,0,1.8-.56,3.17-1.69,4.13-1.12,.95-2.49,1.6-4.1,1.94l3.93,6.29c.9,1.46,1.69,2.51,2.39,3.14,.69,.64,1.47,1.01,2.33,1.12v.73c-.11,.11-.4,.21-.87,.28-.47,.08-1.08,.11-1.82,.11-1.31,0-2.44-.37-3.4-1.12Zm-2.95-13c1.01-.84,1.52-2.12,1.52-3.85s-.51-2.95-1.52-3.79c-1.01-.84-2.21-1.26-3.59-1.26-.26,0-.64,.03-1.12,.08-.49,.06-.86,.1-1.12,.14v9.71c1.2,.15,1.95,.22,2.25,.22,1.38,0,2.58-.42,3.59-1.26Z"/>
</svg>